<svg version="1.1" id="Layer_1" xmlns="http://www.w3.org/2000/svg" x="0" y="0" viewBox="0 0 512 341" xml:space="preserve"><style>.st0{fill:#0052b4}.st1{fill:#f0f0f0}.st2{fill:#d80027}</style><path class="st0" d="M0-.2h512v341.3H0V-.2z"/><path class="st1" d="M223.4 170.5c.3-.3.5-.6.8-.9-.3.3-.5.6-.8.9zm-34.2 41.9l11 22.9 24.7-5.7-11.1 22.9 19.9 15.8-24.8 5.6.1 25.4-19.8-15.9-19.8 15.9.1-25.4-24.8-5.6 19.9-15.8-11.1-22.9 24.7 5.7 11-22.9zm197.9 28.5l5.2 10.9 11.8-2.7-5.3 10.9 9.5 7.5-11.8 2.7v12.1l-9.5-7.6-9.5 7.6v-12.1l-11.8-2.7 9.5-7.5-5.3-10.9 11.8 2.7 5.4-10.9zm-48.6-116l5.2 10.9 11.8-2.7-5.3 10.9 9.5 7.5-11.8 2.7v12.1l-9.5-7.6-9.5 7.6v-12.1l-11.8-2.7 9.5-7.5-5.3-10.9 11.8 2.7 5.4-10.9zm48.6-66.2l5.2 10.9 11.8-2.7-5.3 10.9 9.5 7.5-11.8 2.7v12.1l-9.5-7.6-9.5 7.6V88l-11.8-2.7 9.5-7.5-5.2-10.9 11.8 2.7 5.3-10.9zm42.4 49.7l5.2 10.9 11.8-2.7-5.3 10.9 9.5 7.5-11.8 2.7v12.1l-9.5-7.6-9.5 7.6v-12.1l-11.8-2.7 9.5-7.5-5.3-10.9 11.8 2.7 5.4-10.9zm-30.3 58l4.1 12.7h13.3l-10.8 7.8 4.1 12.7-10.8-7.8-10.8 7.8 4.1-12.7-10.8-7.8h13.3l4.3-12.7z"/><path class="st1" d="M256-.2v30.6l-45.2 25.1H256v59.4h-59.1l59.1 32.8v22.8h-26.7l-73.5-40.8v40.8h-55.7v-48.6l-87.4 48.6H0v-30.6l45.2-25.1H0V55.5h59.1L0 22.6V-.2h26.7l73.5 40.8V-.2h55.7v48.6L243.3-.2H256z"/><path class="st2" d="M144-.2h-32v69.3H0v32h112v69.3h32v-69.3h112v-32H144V-.2z"/><path class="st0" d="M155.8 114.8L256 170.5v-15.7l-71.8-39.9h-28.4z"/><path class="st1" d="M155.8 114.8L256 170.5v-15.7l-71.8-39.9h-28.4z"/><path class="st2" d="M155.8 114.8L256 170.5v-15.7l-71.8-39.9h-28.4zm-84 0L0 154.8v15.7l100.2-55.7H71.8z"/><path class="st0" d="M100.2 55.5L0-.2v15.7l71.8 39.9h28.4z"/><path class="st1" d="M100.2 55.5L0-.2v15.7l71.8 39.9h28.4z"/><path class="st2" d="M100.2 55.5L0-.2v15.7l71.8 39.9h28.4zm84 0L256 15.6V-.2L155.8 55.5h28.4z"/></svg>