<svg version="1.1" id="Layer_1" xmlns="http://www.w3.org/2000/svg" x="0" y="0" viewBox="0 0 512 341" xml:space="preserve"><style>.st3{fill:#f0f0f0}</style><path d="M0-.2h512v341.3H0V-.2z" fill="#d80027"/><path d="M0-.2h512v113.8H0V-.2z" fill="#338af3"/><path d="M0 227.4h512v113.8H0V227.4z" fill="#6da544"/><path class="st3" d="M259.2 212.1c-23 0-41.6-18.6-41.6-41.6s18.6-41.6 41.6-41.6c6.9 0 13.7 1.7 19.8 5-9.2-9-21.9-14.6-35.8-14.6-28.3 0-51.2 22.9-51.2 51.2s22.9 51.2 51.2 51.2c13.9 0 26.6-5.6 35.8-14.6-6.1 3.3-12.9 5-19.8 5z"/><path class="st3" d="M291.2 141.7l5.5 15.5 14.9-7.1-7.1 14.9 15.5 5.5-15.5 5.5 7.1 14.9-14.9-7.1-5.5 15.5-5.5-15.5-14.9 7.1 7.1-14.9-15.5-5.5 15.5-5.5-7.1-14.9 14.9 7.1 5.5-15.5z"/></svg>