<svg version="1.1" xmlns="http://www.w3.org/2000/svg" x="0px" y="0px" viewBox="0 0 512 341" xml:space="preserve"><style>.st1{fill:#ffde00}</style><path fill="#de2910" d="M0 0h512v341H0z"/><path id="s" class="st1" d="M85.3 34.1l30.1 92.6-78.8-57.2H134l-78.8 57.2 30.1-92.6z"/><path id="s_1_" class="st1" d="M177.3 18.4l-2.8 32.3-16.7-27.8 29.9 12.7-31.7 7.3 21.3-24.5z"/><path id="s_2_" class="st1" d="M217 56.4l-15.2 28.7-4.6-32.1 22.6 23.3-32-5.6L217 56.4z"/><path id="s_3_" class="st1" d="M220.8 113.6l-25.6 20 8.9-31.2 11.1 30.5-26.9-18.1 32.5-1.2z"/><path id="s_4_" class="st1" d="M176.7 137.6l-1.5 32.4-17.8-27.1 30.4 11.5-31.3 8.6 20.2-25.4z"/></svg>