<svg version="1.1" id="Layer_1" xmlns="http://www.w3.org/2000/svg" x="0" y="0" viewBox="0 0 512 341" xml:space="preserve"><style>.st2{fill:#ffda44}</style><path d="M0-.2h512v341.3H0V-.2z" fill="#f0f0f0"/><path d="M0-.2h512v113.8H0V-.2zm0 227.6h512v113.8H0V227.4z" fill="#0052b4"/><path class="st2" d="M228.6 176.4l27.4-47.5 27.4 47.5h-54.8z"/><path d="M291.6 192.1L256 209.9l-35.6-17.8v-23.7h71.2v23.7z" fill="#6da544"/><path class="st2" d="M289.6 131L277 143.6c5.4 5.4 8.7 12.8 8.7 21 0 16.4-13.3 29.7-29.7 29.7s-29.7-13.3-29.7-29.7c0-8.2 3.3-15.6 8.7-21L222.4 131a47.39 47.39 0 0 0-13.9 33.6c0 26.2 21.3 47.5 47.5 47.5s47.5-21.3 47.5-47.5c0-13.2-5.3-25-13.9-33.6z"/></svg>