<svg version="1.1" xmlns="http://www.w3.org/2000/svg" x="0px" y="0px" viewBox="0 0 512 341" xml:space="preserve"><style>.st1{fill:#d80027}.st2{fill:#f5f5f5}.st3{fill:#fab446}.st4{fill:#ffb441}.st5{fill:#5064aa}.st7{fill:#ffd250}</style><path d="M0 43.8h512v253.3H0V43.8z" fill="#ffda44"/><path class="st1" d="M0-.2h512V88H0V-.2zM0 253h512v88.2H0V253zm185-78.5l5.6-25.2c.5-2.3-1.3-4.5-3.6-4.5h-4c-2.4 0-4.1 2.2-3.6 4.5l5.6 25.2z"/><path class="st2" d="M178.4 161.2h13.2v56.2h-13.2v-56.2z"/><path class="st3" d="M175.1 154.6h19.8v6.6h-19.8v-6.6z"/><path class="st1" d="M161.9 174.5H195v6.6h-33.1v-6.6zm33 26.4l-19.8-6.6v-6.6l19.8 6.6v6.6zm-109-26.4l5.6-25.2c.5-2.3-1.3-4.5-3.6-4.5H84c-2.4 0-4.1 2.2-3.6 4.5l5.5 25.2z"/><path class="st2" d="M109 154.6c-3.7 0-6.6 3-6.6 6.6v43c0 8 7.5 23.1 33.1 23.1s33.1-15.1 33.1-23.1v-43c0-3.7-3-6.6-6.6-6.6h-53z"/><path class="st1" d="M135.4 187.7h-33.1v-26.4c0-3.7 3-6.6 6.6-6.6h26.4v33h.1zm0 0h33.1v16.5c0 9.1-7.4 16.5-16.5 16.5s-16.5-7.4-16.5-16.5v-16.5h-.1z"/><path class="st3" d="M102.4 187.7h33.1v16.5c0 9.1-7.4 16.5-16.5 16.5s-16.5-7.4-16.5-16.5l-.1-16.5z"/><path class="st1" d="M128.8 217.4v-29.7h-6.6v32.7c2.5-.5 4.7-1.6 6.6-3zm-13.2 3v-32.7H109v29.7c1.9 1.4 4.1 2.5 6.6 3z"/><path class="st4" d="M109 174.5h19.8v6.6H109v-6.6z"/><path class="st3" d="M109 161.2h19.8v6.6H109v-6.6z"/><path class="st3" d="M112.3 165.2h13.2v12h-13.2v-12z"/><path class="st2" d="M79.2 161.2h13.2v56.2H79.2v-56.2z"/><path class="st3" d="M75.9 214.1h19.8v6.6H75.9v-6.6zm0-59.5h19.8v6.6H75.9v-6.6z"/><path class="st5" d="M72.6 220.7H99v6.6H72.6v-6.6z"/><path class="st3" d="M178.4 214.1h19.8v6.6h-19.8v-6.6z"/><path class="st5" d="M171.8 220.7h26.4v6.6h-26.4v-6.6z"/><path class="st3" d="M115.6 148h39.7v6.6h-39.7V148z"/><path class="st4" d="M132.1 128.2h6.6V148h-6.6v-19.8z"/><path class="st2" d="M128.8 138.1c-5.5 0-9.9-4.4-9.9-9.9s4.4-9.9 9.9-9.9 9.9 4.4 9.9 9.9-4.4 9.9-9.9 9.9zm0-13.2c-1.8 0-3.3 1.5-3.3 3.3s1.5 3.3 3.3 3.3 3.3-1.5 3.3-3.3-1.4-3.3-3.3-3.3z"/><path class="st2" d="M142.1 138.1c-5.5 0-9.9-4.4-9.9-9.9s4.4-9.9 9.9-9.9 9.9 4.4 9.9 9.9-4.5 9.9-9.9 9.9zm0-13.2c-1.8 0-3.3 1.5-3.3 3.3s1.5 3.3 3.3 3.3 3.3-1.5 3.3-3.3-1.5-3.3-3.3-3.3z"/><path class="st2" d="M155.3 144.7c-5.5 0-9.9-4.4-9.9-9.9s4.4-9.9 9.9-9.9 9.9 4.4 9.9 9.9-4.5 9.9-9.9 9.9zm0-13.2c-1.8 0-3.3 1.5-3.3 3.3s1.5 3.3 3.3 3.3 3.3-1.5 3.3-3.3-1.5-3.3-3.3-3.3zm-39.7 13.2c-5.5 0-9.9-4.4-9.9-9.9s4.4-9.9 9.9-9.9 9.9 4.4 9.9 9.9-4.4 9.9-9.9 9.9zm0-13.2c-1.8 0-3.3 1.5-3.3 3.3s1.5 3.3 3.3 3.3 3.3-1.5 3.3-3.3-1.5-3.3-3.3-3.3z"/><path class="st3" d="M155.3 200.9v3.3c0 1.8-1.5 3.3-3.3 3.3s-3.3-1.5-3.3-3.3v-3.3h6.6m6.6-6.6h-19.8v9.9c0 5.5 4.4 9.9 9.9 9.9s9.9-4.4 9.9-9.9v-9.9z"/><path d="M152 181.1c-3.7 0-6.6-3-6.6-6.6v-6.6c0-3.7 3-6.6 6.6-6.6 3.7 0 6.6 3 6.6 6.6v6.6c0 3.6-3 6.6-6.6 6.6z" fill="#ffa0d2"/><circle class="st5" cx="135.4" cy="187.7" r="9.9"/><path class="st3" d="M132.1 115h6.6v19.8h-6.6V115z"/><path class="st1" d="M115.6 148l-6.6-6.6 3.9-3.9c6-6 14.1-9.3 22.6-9.3s16.6 3.4 22.6 9.3l3.9 3.9-6.6 6.6h-39.8z"/><circle class="st7" cx="135.4" cy="141.4" r="3.3"/><circle class="st7" cx="122.2" cy="141.4" r="3.3"/><circle class="st7" cx="148.7" cy="141.4" r="3.3"/><path class="st1" d="M75.9 174.5H109v6.6H75.9v-6.6zm0 26.4l19.9-6.6v-6.6l-19.9 6.6v6.6z"/></svg>