<svg version="1.1" xmlns="http://www.w3.org/2000/svg" x="0px" y="0px" viewBox="0 0 512 341" xml:space="preserve"><style>.st0{fill:#de2910}.st1{fill:#fff}</style><path class="st0" d="M0 0h512v341H0z"/><path class="st1" d="M256 170.6c-59.9-25.3-33.3-103.3 23.9-99.4-11.6 6-13.3 17.1-6.6 27.4 7.4 11.5-.7 30.1-10.7 34.6-16.5 7.4-19.8 27.1-6.6 37.4z"/><path class="st0" d="M252.7 114.3l-3.4 5.3-1.2-6.2-6.1-1.6 5.5-3.1-.4-6.3 4.6 4.3 5.8-2.3-2.6 5.7 4 4.8-6.2-.6zM256.3 170c-7.2-3.7-13.1-11.5-15.6-20.7-2.9-10.6-1.2-22 4.6-31.3l-1.3-.8c-6.1 9.6-7.8 21.5-4.8 32.5 2.7 9.8 8.7 17.7 16.4 21.7l.7-1.4z"/><path class="st1" d="M256 170.6c5.6-64.8 87.9-63.6 101.9-7.9-9.2-9.2-20.3-7.3-28.1 2.1-8.7 10.6-28.8 8.6-36.2.5-12-13.3-31.8-10.4-37.6 5.3z"/><path class="st0" d="M308.6 150.1l-6.1-1.6 5.5-3.1-.4-6.3 4.6 4.3 5.8-2.3-2.6 5.7 4 4.8-6.2-.7-3.4 5.3-1.2-6.1zM256.8 170.8c1.3-8 6.9-16 14.9-21.3 9.2-6 20.6-8 31.2-5.3l.4-1.4c-11-2.8-22.8-.8-32.4 5.5-8.5 5.6-14.2 13.7-15.5 22.3l1.4.2z"/><path class="st1" d="M256 170.7c63.3-14.7 87.7 64 39.1 94.5 5.9-11.6.7-21.6-10.7-26-12.8-5-17.1-24.7-11.7-34.3 9-15.7 0-33.6-16.7-34.2z"/><path class="st0" d="M291.8 214.4l-.4-6.3 4.6 4.3 5.8-2.3-2.6 5.7 4 4.8-6.2-.7-3.4 5.3-1.2-6.1-6.1-1.6 5.5-3.1zM256.2 171.4c8-1.2 17.3 1.6 24.8 7.6 8.6 6.9 14 17.1 14.7 28l1.5-.1c-.8-11.3-6.3-21.9-15.2-29.1-7.9-6.3-17.4-9.2-26-7.9l.2 1.5z"/><path class="st1" d="M256 170.7c33.6 55.7-33.7 103.2-77.8 66.3 12.9 2 20.8-6 21.5-18.2.8-13.7 18.2-23.9 29-21.7 17.6 3.7 31.9-10.3 27.3-26.4z"/><path class="st0" d="M225.5 218.2l5.8-2.3-2.6 5.7 4 4.8-6.2-.7-3.4 5.3-1.2-6.2-6.1-1.6 5.5-3.1-.4-6.3 4.6 4.4zM255.3 171.1c3.7 7.3 3.8 17 .5 26-3.9 10.3-12 18.6-22.1 22.6l.6 1.4c10.6-4.2 18.9-12.8 23-23.5 3.6-9.5 3.4-19.4-.5-27.1l-1.5.6z"/><path class="st1" d="M255.9 170.7c-42.6 49.1-108.5-.2-87.1-53.5 2.1 12.9 12.1 17.9 24 14.8 13.2-3.5 28.4 9.9 29.6 20.9 1.9 17.9 19.7 27.1 33.5 17.8z"/><path class="st0" d="M201.4 156.3l4 4.8-6.2-.7-3.4 5.3-1.2-6.2-6.1-1.6 5.5-3.1-.4-6.3 4.6 4.3 5.8-2.3-2.6 5.8zM255.4 170.1c-5.8 5.7-14.9 8.9-24.5 8.5-11-.5-21.3-5.6-28.4-14l-1.1.9c7.3 8.7 18 14 29.4 14.6 10.1.5 19.5-2.8 25.7-8.9l-1.1-1.1z"/></svg>