<svg version="1.1" id="Layer_1" xmlns="http://www.w3.org/2000/svg" x="0" y="0" viewBox="0 0 512 341" xml:space="preserve"><style>.st3{fill:#008}</style><path fill="#f93" d="M0 0h512v341H0z"/><path fill="#f0f0f0" d="M0 113.7h512v113.7H0z"/><path fill="#128807" d="M0 227.3h512V341H0z"/><circle class="st3" cx="255.8" cy="170.5" r="45.5"/><circle cx="255.8" cy="170.5" r="39.8" fill="#fff"/><circle class="st3" cx="255.8" cy="170.5" r="8"/><circle class="st3" cx="295.2" cy="175.7" r="2"/><path class="st3" d="M255.8 210.3l1.4-23.9-1.4-11.4-1.4 11.4 1.4 23.9z"/><circle class="st3" cx="292.5" cy="185.7" r="2"/><path class="st3" d="M245.5 208.9l7.5-22.7 1.6-11.3-4.3 10.6-4.8 23.4z"/><circle class="st3" cx="287.3" cy="194.7" r="2"/><path class="st3" d="M235.9 205l13.1-20 4.5-10.5-6.9 9.2-10.7 21.3z"/><circle class="st3" cx="280" cy="202.1" r="2"/><path class="st3" d="M227.6 198.6l17.8-15.9 7.1-9-9 7.1-15.9 17.8z"/><circle class="st3" cx="271" cy="207.3" r="2"/><path class="st3" d="M221.3 190.4l21.4-10.8 9.2-6.9-10.5 4.5-20.1 13.2z"/><circle class="st3" cx="260.9" cy="209.9" r="2"/><path class="st3" d="M217.3 180.8l23.4-4.9 10.6-4.3-11.3 1.6-22.7 7.6z"/><circle class="st3" cx="250.6" cy="209.9" r="2"/><path class="st3" d="M216 170.5l23.9 1.4 11.4-1.4-11.4-1.4-23.9 1.4z"/><circle class="st3" cx="240.5" cy="207.3" r="2"/><path class="st3" d="M217.3 160.2l22.7 7.5 11.3 1.6-10.6-4.3-23.4-4.8z"/><circle class="st3" cx="231.5" cy="202.1" r="2"/><path class="st3" d="M221.3 150.6l20 13.1 10.5 4.5-9.2-6.9-21.3-10.7z"/><circle class="st3" cx="224.2" cy="194.7" r="2"/><path class="st3" d="M227.6 142.4l15.9 17.8 9 7.1-7.1-9-17.8-15.9z"/><circle class="st3" cx="219" cy="185.7" r="2"/><path class="st3" d="M235.9 136l10.8 21.4 6.9 9.2L249 156l-13.1-20z"/><circle class="st3" cx="216.3" cy="175.7" r="2"/><path class="st3" d="M245.5 132.1l4.9 23.4 4.3 10.6-1.6-11.3-7.6-22.7z"/><circle class="st3" cx="216.3" cy="165.3" r="2"/><path class="st3" d="M255.8 130.7l-1.4 23.9 1.4 11.4 1.4-11.4-1.4-23.9z"/><circle class="st3" cx="219" cy="155.3" r="2"/><path class="st3" d="M266 132.1l-7.5 22.7-1.6 11.3 4.3-10.6 4.8-23.4z"/><circle class="st3" cx="224.2" cy="146.3" r="2"/><path class="st3" d="M275.6 136l-13.1 20-4.5 10.5 6.9-9.2 10.7-21.3z"/><circle class="st3" cx="231.5" cy="138.9" r="2"/><path class="st3" d="M283.9 142.4L266 158.3l-7.1 9 9-7.1 16-17.8z"/><circle class="st3" cx="240.5" cy="133.7" r="2"/><path class="st3" d="M290.2 150.6l-21.4 10.8-9.2 6.9 10.5-4.5 20.1-13.2z"/><circle class="st3" cx="250.6" cy="131.1" r="2"/><path class="st3" d="M294.2 160.2l-23.4 4.9-10.6 4.3 11.3-1.6 22.7-7.6z"/><circle class="st3" cx="260.9" cy="131.1" r="2"/><path class="st3" d="M295.5 170.5l-23.9-1.4-11.4 1.4 11.4 1.4 23.9-1.4z"/><circle class="st3" cx="271" cy="133.7" r="2"/><path class="st3" d="M294.2 180.8l-22.7-7.5-11.3-1.6 10.6 4.3 23.4 4.8z"/><circle class="st3" cx="280" cy="138.9" r="2"/><path class="st3" d="M290.2 190.4l-20-13.1-10.5-4.5 9.2 6.9 21.3 10.7z"/><circle class="st3" cx="287.3" cy="146.3" r="2"/><path class="st3" d="M283.9 198.6L268 180.8l-9-7.1 7.1 9 17.8 15.9z"/><circle class="st3" cx="292.5" cy="155.3" r="2"/><path class="st3" d="M275.6 205l-10.8-21.4-6.9-9.2 4.5 10.5 13.2 20.1z"/><circle class="st3" cx="295.2" cy="165.3" r="2"/><path class="st3" d="M266 208.9l-4.9-23.4-4.3-10.6 1.6 11.3 7.6 22.7z"/></svg>