<svg xmlns="http://www.w3.org/2000/svg" viewBox="0 0 512 341"><path d="M0-.2h512v341.3H0V-.2z" fill="#f0f0f0"/><path d="M320 133.5h-42.7l-21.3-37-21.3 36.9H192l21.3 37-21.3 37h42.7l21.3 37 21.3-37H320l-21.3-37 21.3-36.9zm-37.8 37l-13.1 22.7h-26.2l-13.1-22.7 13.1-22.7h26.2l13.1 22.7zM256 125.1l4.9 8.4h-9.8l4.9-8.4zm-39.3 22.7h9.8l-4.9 8.4-4.9-8.4zm0 45.4l4.9-8.4 4.9 8.4h-9.8zm39.3 22.7l-4.9-8.4h9.8l-4.9 8.4zm39.3-22.7h-9.8l4.9-8.4 4.9 8.4zm-9.7-45.4h9.8l-4.9 8.4-4.9-8.4zM0 21.2h512v42.7H0V21.2zm0 256h512v42.7H0v-42.7z" fill="#2e52b2"/></svg>