<svg version="1.1" id="Layer_1" xmlns="http://www.w3.org/2000/svg" x="0" y="0" viewBox="0 0 512 341" xml:space="preserve"><style>.st0{fill:#338af3}.st1{fill:#ffda44}</style><path class="st0" d="M0-.2h512v341.3H0V-.2z"/><path class="st1" d="M352 180.3H160c0 13.3 11.5 24 24.8 24h-.8c0 13.3 10.7 24 24 24 0 13.3 10.7 24 24 24h48c13.3 0 24-10.7 24-24 13.3 0 24-10.7 24-24h-.8c13.3 0 24.8-10.8 24.8-24z"/><path class="st0" d="M322.5 148.9c0 36.7-29.8 66.5-66.5 66.5s-66.5-29.8-66.5-66.5"/><path class="st1" d="M321.9 142.7L295 153.6l14.3 22.4-29.2-4.8-3.7 25.4-20.4-18.7-20.4 18.7-3.7-25.4-29.2 4.8 14.3-22.4-26.9-10.9 26.9-10.9-14.3-22.4 29.2 4.8 3.7-25.4 20.4 18.7 20.4-18.7 3.7 25.4 29.2-4.8-14.3 22.4 26.9 10.9z"/></svg>