<svg xmlns="http://www.w3.org/2000/svg" viewBox="0 0 512 341"><path d="M0 0h512v341H0V0z" fill="#f0f0f0"/><path d="M400.02 262.193l21.688-32.535 11.816 7.876-21.69 32.535zm-25.75 38.514l21.69-32.53 11.814 7.876-21.69 32.531zM78.5 237.512l11.817-7.876 47.316 70.978-11.816 7.876zm35.54-23.612l11.816-7.876 47.316 70.978-11.816 7.876zM356.665 52.182l11.816-7.877 47.316 70.978-11.816 7.877zM96.255 225.739l11.816-7.877 21.689 32.535-11.816 7.877zm25.615 38.495l11.814-7.877 21.69 32.532-11.815 7.876zM338.88 64.02l11.816-7.877 21.688 32.536-11.816 7.876zm25.574 38.432l11.816-7.877 21.689 32.535-11.816 7.877zm9.909-62.127l11.816-7.877 21.69 32.535-11.817 7.877zm25.592 38.515l11.814-7.877 21.69 32.531-11.815 7.877zM364.49 238.509l21.689-32.535 11.816 7.876-21.689 32.535zm-25.637 38.533l21.689-32.535 11.816 7.877-21.69 32.535zm17.751 11.773l21.689-32.536 11.815 7.877-21.688 32.535zm25.581-38.451l21.689-32.535 11.816 7.877L394 258.24zM113.959 127.095l47.316-70.978 11.815 7.877-47.316 70.978zm-17.696-11.856L143.58 44.26l11.816 7.877-47.316 70.978zm-17.75-11.773l47.316-70.978 11.816 7.876-47.316 70.978z"/><path d="M303 99.9c-39-26-91.6-15.4-117.5 23.5-13 19.4-7.7 45.8 11.7 58.8 19.5 13 45.8 7.7 58.7-11.8 13-19.5 39.3-24.7 58.8-11.8 19.5 13 24.7 39.4 11.7 58.8 26-38.9 15.6-91.5-23.4-117.5" fill="#d80027"/><path d="M185.5 123.5c-13 19.4-7.7 45.8 11.7 58.8 19.5 13 45.8 7.7 58.7-11.8 13-19.5 39.3-24.7 58.8-11.8 19.5 13 24.7 39.4 11.7 58.8-25.9 39-78.5 49.5-117.5 23.5-38.8-25.9-49.4-78.6-23.4-117.5" fill="#0052b4"/></svg>