<svg xmlns="http://www.w3.org/2000/svg" version="1.1" viewBox="0 0 512 341"><defs><style>.cls-3{stroke-width:0;fill:#c00}</style></defs><path d="M0 0h512v341H0V0Z" style="fill:#f0f0f0;stroke-width:0"/><path d="M0 0h512v24.4H0V0Zm0 48.7h512v24.4H0V48.7Zm0 48.7h512v24.4H0V97.4Zm0 48.7h512v24.4H0v-24.4Z" class="cls-3"/><path d="M0 0h268v194.8H0V0Z" style="fill:#006;stroke-width:0"/><path d="M512 316.6H0v-24.4h512v24.4Zm0-48.7H0v-24.4h512v24.4Zm0-48.7H0v-24.4h512v24.4Z" class="cls-3"/><path d="m177.9 38.8 5.3 35.8 20.2-29.9-10.9 34.5L223.7 61 199 87.3l36-2.9-33.7 12.9 33.7 13-36-2.9 24.7 26.4-31.2-18.2 10.9 34.5-20.2-29.9-5.3 35.8-5.3-35.8-20.2 29.9 10.9-34.5-31.2 18.2 24.7-26.4-36 2.9 33.7-13-33.7-13 36 2.9-24.7-26.4L163.3 79l-10.9-34.5 20.2 29.9 5.3-35.5Zm-29.2 1.5c-31.5-14.1-68.4.2-82.5 31.8-14.1 31.5.2 68.4 31.8 82.5 16.1 7.2 34.5 7.2 50.7 0-31.5 22.6-75.4 15.4-98-16.1-22.6-31.5-15.4-75.4 16.1-98 24.4-17.7 57.5-17.7 81.9-.1Z" style="stroke-width:0;fill:#fc0"/></svg>