<svg version="1.1" id="Layer_1" xmlns="http://www.w3.org/2000/svg" x="0" y="0" viewBox="0 0 512 341" xml:space="preserve"><style>.st0{fill:#f0f0f0}</style><path class="st0" d="M0-.2h512v341.3H0V-.2z"/><path d="M0-.2h512v170.7H0V-.2z" fill="#d80027"/><path class="st0" d="M83.5 85.2c0-24.9 17.5-45.6 40.8-50.7-3.7-.8-7.4-1.2-11.1-1.2-28.7 0-51.9 23.3-51.9 51.9s23.3 51.9 51.9 51.9c3.8 0 7.5-.4 11.1-1.2-23.3-5.1-40.8-25.9-40.8-50.7zm66.8-48.3l3.7 11.3h11.9l-9.6 7 3.7 11.3-9.6-7-9.6 7 3.7-11.3-9.6-7h11.9l3.5-11.3z"/><path class="st0" d="M121.3 59.2l3.7 11.3h11.9l-9.6 7 3.7 11.3-9.6-7-9.6 7 3.7-11.3-9.6-7h11.9l3.5-11.3zm57.9 0l3.7 11.3h11.9l-9.6 7 3.7 11.3-9.6-7-9.6 7 3.7-11.3-9.6-7h11.9l3.5-11.3zM168 92.6l3.7 11.3h11.9l-9.6 7 3.7 11.3-9.6-7-9.6 7 3.7-11.3-9.6-7h11.9l3.5-11.3zm-35.5 0l3.7 11.3h11.9l-9.6 7 3.7 11.3-9.6-7-9.6 7 3.7-11.3-9.6-7H129l3.5-11.3z"/></svg>