<svg version="1.1" id="Layer_1" xmlns="http://www.w3.org/2000/svg" x="0" y="0" viewBox="0 0 512 341.3" xml:space="preserve"><style>.st0{fill:#ffda44}</style><path class="st0" d="M0 0v341.3h512V0H0zm489.7 319.1H222.6V22.3h267.1v296.8z"/><path d="M222.6 22.3h267.1v296.8H222.6V22.3z" fill="#a2001d"/><path d="M22.3 22.3h200.3v296.8H22.3V22.3z" fill="#d80027"/><path class="st0" d="M200.3 0h22.3v341.3h-22.3V0z"/><path d="M22.3 22.3h89v296.8h-89V22.3z" fill="#6da544"/><path d="M111.3 22.3h89v296.8h-89V22.3z" fill="#ff9811"/><path class="st0" d="M358.7 165.1v-44.5c0-7.4-11.1-14.8-11.1-14.8s-11.1 7.4-11.1 14.8H292v44.5h22.3v22.3c0 4.9 1 9.5 2.8 13.8l-10.2 8.5h-29.7V72.3c-12.3 0-22.3 10-22.3 22.3v96.5c0 6.3 2.7 12.4 7.4 16.6V243h14.8v-18.6h66.8v29.7H329V269h29.7v-29.7l13.6-14.8h44.3v29.7h-14.8V269h29.7v-29.7l13.6-14.8 12.6-40.3-11-19.1h-38.9c-14.4-.1-40.9.1-49.1 0z"/><path class="st0" d="M370.6 126.5v25.2h71.5v13.4h4.5v-17.8H375V131h76v-4.5h-80.4zm-148-104.2h22.3v22.3h-22.3V22.3zm244.9 0h22.3v22.3h-22.3V22.3zM222.6 296.8h22.3v22.3h-22.3v-22.3zm244.9 0h22.3v22.3h-22.3v-22.3z"/></svg>