<svg version="1.1" id="Layer_1" xmlns="http://www.w3.org/2000/svg" x="0" y="0" viewBox="0 0 512 341" xml:space="preserve"><style>.st2,.st3{fill-rule:evenodd;clip-rule:evenodd;fill:#fff}.st3{fill:#003283}</style><path d="M0 0h512v341H0V0z" fill="#f0f0f0"/><path d="M0-.2h512v341.3H0V-.2z" fill="none"/><path class="st2" d="M390.6 157.7c0-38-29.2-69.2-66.4-72.2-10-28-36.8-48-68.2-48s-58.2 20-68.2 48c-37.2 3-66.5 34.2-66.5 72.2 0 22.3 10.1 42.3 26 55.6-1.4 5.7-2.2 11.7-2.2 17.8 0 40 32.4 72.5 72.5 72.5 14.1 0 27.3-4 38.4-11 11.1 7 24.3 11 38.4 11 40 0 72.4-32.4 72.4-72.5 0-6.1-.8-12.1-2.2-17.8 15.9-13.3 26-33.3 26-55.6z"/><path class="st3" d="M257 108.5c-18.5 0-33.5 15-33.5 33.5s15 33.5 33.5 33.5 33.5-15 33.5-33.5-15-33.5-33.5-33.5zm0 49.7c-8.9 0-16.2-7.2-16.2-16.2 0-8.9 7.2-16.2 16.2-16.2 8.9 0 16.2 7.3 16.2 16.2s-7.3 16.2-16.2 16.2z"/><path class="st3" d="M390.6 157.7c0-38-29.2-69.2-66.4-72.2-10-28-36.8-48-68.2-48s-58.2 20-68.2 48c-37.2 3-66.5 34.2-66.5 72.2 0 22.3 10.1 42.3 26 55.6-1.4 5.7-2.2 11.7-2.2 17.8 0 40 32.4 72.5 72.5 72.5 14.1 0 27.3-4 38.4-11 11.1 7 24.3 11 38.4 11 40 0 72.4-32.4 72.4-72.5 0-6.1-.8-12.1-2.2-17.8 15.9-13.3 26-33.3 26-55.6zM352 206.5c3.2 7.4 5 15.5 5 24 0 33.3-27 60.4-60.4 60.4-15 0-28.8-5.5-39.3-14.6-10.6 9.1-24.3 14.6-39.3 14.6-33.3 0-60.4-27-60.4-60.4 0-8.2 1.6-16 4.6-23.1-17-10.7-28.4-29.6-28.4-51.2 0-33.3 27-60.4 60.4-60.4 1.3 0 2.5 0 3.7.1 6.6-26.2 30.3-45.5 58.5-45.5s51.9 19.4 58.5 45.5c1.2-.1 2.5-.1 3.7-.1 33.3 0 60.4 27 60.4 60.4-.1 21-10.8 39.5-27 50.3z"/><path d="M370.8 157.8c0-30.6-24.7-55.3-55.3-55.3-1.7 0-3.5.1-5.2.2-5.5-24.7-27.6-43.2-53.9-43.2-26.4 0-48.4 18.4-53.9 43.2-1.7-.1-3.4-.2-5.2-.2-30.6 0-55.3 24.7-55.3 55.3 0 20.4 11.1 38.3 27.6 47.8-2.9 6.7-4.6 14.1-4.6 21.9 0 30.6 24.8 55.3 55.3 55.3 14.2 0 27.2-5.4 37-14.2 9.8 8.8 22.7 14.2 37 14.2 30.5 0 55.3-24.7 55.3-55.3 0-8.1-1.7-15.8-4.9-22.8 15.6-9.6 26.1-27 26.1-46.9zm-35.6 43.6c5 7.6 7.9 16.8 7.9 26.6 0 26.8-21.7 48.5-48.5 48.5-15.1 0-28.6-6.9-37.5-17.7-8.9 10.8-22.4 17.7-37.5 17.7-26.8 0-48.6-21.7-48.6-48.5 0-9.5 2.7-18.4 7.5-25.9-17.4-7.4-29.6-24.6-29.6-44.7 0-26.8 21.7-48.6 48.6-48.6 3.8 0 7.6.5 11.1 1.3 2.5-24.4 23.2-43.5 48.3-43.5 25 0 45.6 18.9 48.2 43.2 3.1-.6 6.4-1 9.7-1 26.8 0 48.5 21.7 48.5 48.6 0 19.5-11.5 36.3-28.1 44z" fill-rule="evenodd" clip-rule="evenodd" fill="#e41f20"/><path class="st2" d="M253 123.5h8.4l-4-12.8-4.4 12.8zm-8.7 4.5l7.3-4.2-9.9-9.1 2.6 13.3zm-5.3 8.3l4.2-7.4-13.1-2.9 8.9 10.3zm-.5 9.7v-8.4l-12.8 4 12.8 4.4zm4.5 8.7l-4.2-7.3-9.1 9.9 13.3-2.6zm8.2 5.3l-7.3-4.2-2.9 13.1 10.2-8.9zm9.8.5h-8.4l4 12.8 4.4-12.8zm8.7-4.5l-7.3 4.2 9.9 9.1-2.6-13.3zm5.3-8.2l-4.2 7.3 13.1 2.9-8.9-10.2zm.4-9.8v8.4l12.9-4-12.9-4.4zm-4.4-8.7l4.2 7.3 9.1-9.9-13.3 2.6zm-8.3-5.3l7.3 4.2 3-13.1-10.3 8.9z"/><path d="M233 208.5c0-11.8-9.5-21.4-21.4-21.4-11.8 0-21.4 9.6-21.4 21.4s9.6 21.4 21.4 21.4c.6 0 1.3 0 1.9-.1 0-.6-.1-1.1-.1-1.7s0-1.3.1-1.9c-.6.1-1.2.1-1.9.1-9.8 0-17.8-8-17.8-17.8s8-17.8 17.8-17.8c9.9 0 17.8 8 17.8 17.8 0 7.9-5.1 14.6-12.3 16.9-.1.9-.2 1.8-.2 2.7v1.1c9.3-2.4 16.1-10.7 16.1-20.7z" fill="#0083ce"/><path d="M325.6 208.5c0 11.8-9.5 21.4-21.4 21.4-11.2 0-20.3-8.6-21.3-19.5 1.3.1 2.5.4 3.7.8 1.3 8.6 8.7 15.1 17.6 15.1 9.9 0 17.8-8 17.8-17.8s-8-17.8-17.8-17.8c-9.5 0-17.2 7.4-17.8 16.7-1.2-.3-2.3-.5-3.5-.6.9-11 10.1-19.7 21.3-19.7 11.8.1 21.4 9.6 21.4 21.4z" fill="#e61446"/><path d="M298.9 229.2c-.6 9.4-8.3 16.7-17.8 16.7-9.8 0-17.8-8-17.8-17.8 0-7.9 5.1-14.6 12.3-16.9.1-.9.2-1.8.2-2.7v-1.1c-9.2 2.4-16 10.8-16 20.7 0 11.8 9.6 21.4 21.4 21.4 11.2 0 20.4-8.7 21.3-19.7-1.3-.1-2.5-.3-3.6-.6zm-17.8-18.9c8.9 0 16.3 6.6 17.6 15.1 1.2.4 2.4.7 3.7.8-1-10.9-10.1-19.5-21.3-19.5-.6 0-1.2 0-1.8.1v1.7c0 .6 0 1.3-.1 1.9.6-.1 1.3-.1 1.9-.1z" fill="#009c45"/><path d="M256.1 229.8c-.9 11-10.1 19.7-21.3 19.7-11.8 0-21.4-9.6-21.4-21.4 0-9.9 6.8-18.3 16-20.7v1.1c0 .9-.1 1.8-.2 2.7-7.1 2.3-12.3 9-12.3 16.9 0 9.8 8 17.8 17.8 17.8 9.5 0 17.2-7.4 17.8-16.7 1.2.3 2.4.5 3.6.6zm-23.2-19.4c0-.6.1-1.2.1-1.9 0-.6 0-1.1-.1-1.7.6 0 1.2-.1 1.8-.1 11.2 0 20.3 8.6 21.3 19.5-1.3-.1-2.5-.4-3.7-.8-1.3-8.6-8.7-15.1-17.6-15.1-.5 0-1.2 0-1.8.1z" fill="#f7b000"/><path d="M257.9 226.3c-8.9 0-16.3-6.6-17.6-15.1-1.2-.4-2.4-.7-3.7-.8 1 10.9 10.1 19.5 21.3 19.5.6 0 1.2 0 1.9-.1-.1-.6-.1-1.1-.1-1.7s0-1.3.1-1.9c-.6.1-1.2.1-1.9.1zm0-39.1c-11.2 0-20.4 8.7-21.3 19.7 1.2.1 2.4.3 3.5.6.6-9.3 8.3-16.7 17.8-16.7 9.8 0 17.8 8 17.8 17.8 0 7.9-5.1 14.6-12.3 16.9-.1.9-.2 1.8-.2 2.7v1.1c9.2-2.4 16-10.7 16-20.7.1-11.9-9.5-21.4-21.3-21.4z" fill="#000006"/></svg>