<svg version="1.1" id="Layer_1" xmlns="http://www.w3.org/2000/svg" x="0" y="0" viewBox="0 0 512 341" xml:space="preserve"><style>.st1{fill:#f0f0f0}</style><path d="M0-.2h512v341.3H0V-.2z" fill="#d80027"/><path class="st1" d="M247.2 131.3l17.6 24.2 28.5-9.2-17.6 24.2 17.6 24.2-28.5-9.3-17.6 24.2v-30l-28.5-9.3 28.5-9.2v-29.8z"/><path class="st1" d="M199.2 231.1c-33.5 0-60.6-27.1-60.6-60.6s27.1-60.6 60.6-60.6c10.4 0 20.3 2.6 28.8 7.3-13.4-13.2-31.8-21.3-52.1-21.3-41.2 0-74.6 33.4-74.6 74.6s33.4 74.6 74.6 74.6c20.3 0 38.7-8.1 52.1-21.3-8.5 4.7-18.4 7.3-28.8 7.3z"/></svg>