<svg version="1.1" id="Layer_1" xmlns="http://www.w3.org/2000/svg" x="0" y="0" viewBox="0 0 512 341" xml:space="preserve"><style>.st3{fill:#fff}</style><path fill="#b22234" d="M0 0h512v341H0z"/><path d="M0 288.5h512v26.2H0zm0-52.4h512v26.2H0zm0-52.5h512v26.2H0zm0-52.4h512v26.2H0zm0-52.5h512v26.2H0zm0-52.5h512v26.2H0z" fill="#f0f0f0"/><path fill="#3c3b6e" d="M0 0h259.2v183.6H0z"/><path id="s_1_" class="st3" d="M21.6 7.9l6.2 19-16.2-11.8h20L15.4 26.8l6.2-18.9z"/><path class="st3" d="M21.6 44.6l6.2 19-16.2-11.8h20L15.4 63.6l6.2-19zm0 36.7l6.2 19-16.2-11.7h20l-16.1 11.7 6.1-19zm0 36.7l6.2 19-16.1-11.7h20L15.4 137l6.2-19zm0 36.8l6.2 19L11.6 162h20l-16.1 11.7 6.1-18.9zM43.2 26.2l6.2 19-16.2-11.7h20L37 45.2l6.2-19zm0 36.8l6.2 19-16.2-11.8h20L37 81.9 43.2 63zm0 36.7l6.2 19L33.3 107h20L37 118.7l6.2-19zm0 36.7l6.2 19-16.1-11.7h20L37 155.4l6.2-19zM64.8 7.9l6.2 19-16.2-11.8h20L58.6 26.8l6.2-18.9zm0 36.7l6.2 19-16.2-11.8h20L58.6 63.6l6.2-19zm0 36.7l6.2 19-16.2-11.7h20l-16.1 11.7 6.1-19zm0 36.7l6.2 19-16.1-11.7h20L58.6 137l6.2-19zm0 36.8l6.2 19L54.8 162h20l-16.1 11.7 6.1-18.9zM86.4 26.2l6.2 19-16.2-11.7h20L80.2 45.2l6.2-19zm0 36.8l6.2 19-16.2-11.8h20L80.2 81.9 86.4 63zm0 36.7l6.2 19L76.5 107h20l-16.1 11.7 6-19zm0 36.7l6.2 19-16.1-11.7h20l-16.1 11.7 6-19zM108 7.9l6.2 19L98 15.1h20l-16.1 11.7L108 7.9zm0 36.7l6.2 19L98 51.8h20l-16.1 11.7 6.1-18.9zm0 36.7l6.2 19L98 88.6h20l-16.1 11.7 6.1-19zm0 36.7l6.2 19L98 125.3h20L101.8 137l6.2-19zm0 36.8l6.2 19L98 162h20l-16.1 11.7 6.1-18.9zm21.6-128.6l6.2 19-16.1-11.7h20l-16.1 11.7 6-19zm0 36.8l6.2 19-16.1-11.7h20L123.6 82l6-19zm0 36.7l6.2 19-16.1-11.7h20l-16.1 11.7 6-19zm0 36.7l6.2 19-16.1-11.7h20l-16.1 11.7 6-19zM151.2 7.9l6.2 19-16.1-11.7h20L145 26.8l6.2-18.9zm0 36.7l6.2 19-16.1-11.7h20L145 63.6l6.2-19zm0 36.7l6.2 19-16.1-11.7h20L145 100.3l6.2-19zm0 36.7l6.2 19-16.1-11.7h20L145 137l6.2-19zm0 36.8l6.2 19-16.2-11.8h20L145 173.7l6.2-18.9zm21.6-128.6l6.2 19-16.1-11.7h20l-16.1 11.7 6-19zm0 36.8l6.2 19-16.1-11.7h20L166.8 82l6-19zm0 36.7l6.2 19-16.1-11.7h20l-16.1 11.7 6-19zm0 36.7l6.2 19-16.1-11.7h20l-16.1 11.7 6-19zM194.4 7.9l6.2 19-16.1-11.7h20l-16.1 11.7 6-19zm0 36.7l6.2 19-16.1-11.7h20l-16.1 11.7 6-19zm0 36.7l6.2 19-16.1-11.7h20l-16.1 11.7 6-19zm0 36.7l6.2 19-16.1-11.7h20L188.2 137l6.2-19zm0 36.8l6.2 19-16.2-11.8h20l-16.1 11.7 6.1-18.9zM216 26.2l6.2 19L206 33.5h20l-16.1 11.7 6.1-19zm0 36.8l6.2 19L206 70.2h20l-16.1 11.7L216 63zm0 36.7l6.2 19-16.2-11.8h20l-16.1 11.7 6.1-18.9zm0 36.7l6.2 19-16.2-11.7h20l-16.1 11.7 6.1-19zM237.6 7.9l6.2 19-16.1-11.7h20l-16.1 11.7 6-19zm0 36.7l6.2 19-16.1-11.7h20l-16.1 11.7 6-19zm0 36.7l6.2 19-16.1-11.7h20l-16.1 11.7 6-19zm0 36.7l6.2 19-16.1-11.7h20L231.4 137l6.2-19zm0 36.8l6.2 19-16.2-11.8h20l-16.1 11.7 6.1-18.9z"/></svg>